<svg width="111" height="19" viewBox="0 0 111 19" fill="none" xmlns="http://www.w3.org/2000/svg">
    <path d="M16.2752 11.3595C15.9438 11.562 15.5572 11.5988 15.2626 11.4331C14.8944 11.2122 14.6734 10.7151 14.6734 10.0339V7.95349C14.6734 6.9593 14.2868 6.24128 13.624 6.05717C12.501 5.72577 11.6541 7.10659 11.3411 7.62209L9.35271 10.8072V6.88566C9.3343 5.98353 9.03973 5.44961 8.4874 5.28392C8.11919 5.17345 7.56686 5.22868 7.03294 6.03876L2.59593 13.1453C2.00678 12.0223 1.6938 10.7703 1.6938 9.5C1.6938 5.21027 5.13663 1.73062 9.35271 1.73062C13.5688 1.73062 17.0116 5.21027 17.0116 9.5V9.51841V9.53682C17.0484 10.3653 16.7907 11.0281 16.2752 11.3595ZM18.7054 9.5V9.48159V9.46318C18.687 4.25291 14.4893 0 9.35271 0C4.19767 0 0 4.25291 0 9.5C0 14.7287 4.19767 19 9.35271 19C11.7277 19 13.9738 18.0979 15.7045 16.4593C16.0543 16.1279 16.0727 15.594 15.7413 15.2442C15.4283 14.8944 14.8944 14.876 14.5446 15.189C14.5446 15.189 14.5446 15.189 14.5262 15.2074C13.1269 16.5329 11.249 17.2878 9.31589 17.2878C7.05136 17.2878 5.02616 16.2936 3.62694 14.7103L7.62209 8.3033V11.2674C7.62209 12.6851 8.17442 13.1453 8.63469 13.2742C9.09496 13.4031 9.79457 13.311 10.5494 12.1143L12.7403 8.56105C12.814 8.45058 12.8692 8.34011 12.9428 8.26647V10.0707C12.9428 11.3963 13.4767 12.4641 14.3973 12.9796C15.2258 13.4583 16.2752 13.4031 17.1405 12.8692C18.2083 12.1696 18.7791 10.9545 18.7054 9.5ZM31.7403 6.25969C31.9612 6.38857 32.1638 6.70155 32.1638 6.97771C32.1638 7.41957 31.7955 7.78779 31.3721 7.78779C31.2616 7.78779 31.1696 7.75097 31.0775 7.73256C30.5804 7.36434 29.9545 7.125 29.2917 7.125C27.7267 7.125 26.6589 8.39535 26.6589 9.97868C26.6589 11.562 27.7452 12.814 29.2917 12.814C30.0649 12.814 30.7645 12.501 31.28 12.0039C31.4089 11.9118 31.5746 11.8566 31.7403 11.8566C32.1638 11.8566 32.4951 12.188 32.4951 12.6114C32.4951 12.8876 32.3295 13.1269 32.1269 13.2558C31.3721 13.9002 30.3595 14.3236 29.3101 14.3236C26.9167 14.3236 24.9651 12.3537 24.9651 9.92345C24.9651 7.49322 26.9167 5.52326 29.3101 5.52326C30.1938 5.50484 31.0407 5.78101 31.7403 6.25969ZM36.1221 8.10077C37.7607 8.10077 39.1231 9.48159 39.1231 11.1938C39.1231 12.8876 37.7422 14.3421 36.1221 14.3421C34.4099 14.3421 32.9922 12.906 32.9922 11.1938C32.9922 9.48159 34.4099 8.10077 36.1221 8.10077ZM36.1037 12.814C36.8217 12.814 37.4293 12.1327 37.4293 11.2122C37.4293 10.2917 36.8217 9.70252 36.1037 9.70252C35.3304 9.70252 34.686 10.2733 34.686 11.2122C34.686 12.1143 35.3304 12.814 36.1037 12.814ZM40.1541 13.3847V9.03973C40.1541 8.56105 40.5223 8.17442 41.001 8.17442C41.4612 8.17442 41.8479 8.56105 41.8479 9.03973V13.3847C41.8479 13.8634 41.4612 14.25 41.001 14.25C40.5407 14.25 40.1541 13.845 40.1541 13.3847ZM40.0252 6.53585C40.0252 5.96512 40.467 5.52326 41.001 5.52326C41.5533 5.52326 41.9951 5.98353 41.9951 6.53585C41.9951 7.08818 41.5533 7.53004 41.001 7.53004C40.4486 7.51163 40.0252 7.06977 40.0252 6.53585ZM45.0882 11.0281V13.3847C45.0882 13.8634 44.7015 14.25 44.2413 14.25C43.781 14.25 43.3944 13.8634 43.3944 13.3847V8.83721C43.3944 8.46899 43.6889 8.17442 44.0572 8.17442C44.4254 8.17442 44.7015 8.4874 44.7015 8.83721C45.3827 8.19283 45.9903 8.10077 46.561 8.10077C48.2548 8.10077 49.0097 9.37113 49.0097 10.8256V13.3847C49.0097 13.8634 48.6231 14.25 48.1628 14.25C47.7025 14.25 47.3159 13.8634 47.3159 13.3847V11.0281C47.3159 10.2917 47.2238 9.6657 46.156 9.6657C45.4012 9.6657 45.0882 10.2917 45.0882 11.0281ZM54.4961 11.9302C54.2936 11.9302 54.1647 11.8382 54.0542 11.7093L52.0843 9.57364V13.3847C52.0843 13.8634 51.6977 14.25 51.2374 14.25C50.7771 14.25 50.3905 13.8634 50.3905 13.3847V5.83624C50.4457 5.70737 50.5746 5.61531 50.7035 5.61531C50.8508 5.61531 50.9796 5.74419 51.0717 5.83624L54.22 9.37112C54.312 9.48159 54.4225 9.53682 54.4961 9.53682C54.5513 9.53682 54.6802 9.48159 54.7723 9.37112L57.9205 5.83624C58.0126 5.74419 58.123 5.61531 58.2887 5.61531C58.436 5.61531 58.5649 5.70737 58.6017 5.83624V13.3847C58.6017 13.8634 58.2335 14.25 57.7548 14.25C57.2946 14.25 56.9079 13.8634 56.9079 13.3847V9.57364L54.938 11.7093C54.7907 11.8382 54.6618 11.9302 54.4961 11.9302ZM62.6337 12.814C63.3885 12.814 64.0329 12.1327 64.0329 11.2122C64.0329 10.2917 63.3701 9.68411 62.6337 9.68411C61.8973 9.68411 61.2897 10.3101 61.2897 11.2122C61.2897 12.0959 61.8789 12.814 62.6337 12.814ZM64.438 13.5872L64.4011 13.3847C64.0698 14.0291 63.0203 14.3236 62.3575 14.3236C60.7742 14.3236 59.5959 12.8876 59.5959 11.1754C59.5959 9.48159 60.7926 8.08236 62.4496 8.08236C62.7258 8.08236 63.6831 8.15601 64.4196 9.02132L64.4564 8.8188C64.4564 8.45058 64.7325 8.15601 65.1008 8.15601C65.469 8.15601 65.7635 8.46899 65.7635 8.8188V13.5688C65.7635 13.937 65.469 14.2316 65.1008 14.2316C64.7141 14.25 64.438 13.937 64.438 13.5872ZM70.4215 9.6657H70.2374C69.1696 9.72093 68.967 10.3285 68.967 11.0281V13.3847C68.967 13.8634 68.5804 14.25 68.1201 14.25C67.6599 14.25 67.2732 13.8634 67.2732 13.3847V8.83721C67.2732 8.46899 67.5678 8.17442 67.936 8.17442C68.3043 8.17442 68.5804 8.4874 68.5804 8.83721C69.2064 8.24806 69.7219 8.11919 70.2374 8.10077H70.4031C70.8081 8.10077 71.1763 8.45058 71.1763 8.89244C71.1947 9.29748 70.8265 9.6657 70.4215 9.6657ZM76.9574 12.9796C77.031 13.1085 77.0862 13.2374 77.0862 13.3847C77.0862 13.8266 76.6812 14.2316 76.2393 14.2316C75.9447 14.2316 75.687 14.0107 75.4845 13.7529L73.5329 11.4884V13.3663C73.5329 13.845 73.1463 14.2316 72.686 14.2316C72.2258 14.2316 71.8391 13.845 71.8391 13.3663V6.46221C71.8391 5.98353 72.2074 5.5969 72.686 5.5969C73.1647 5.5969 73.5329 5.98353 73.5329 6.46221V10.7703L75.4845 8.61628C75.687 8.39535 75.9263 8.15601 76.2209 8.15601C76.6444 8.15601 77.031 8.54264 77.031 8.9845C77.031 9.11337 76.9942 9.26066 76.9205 9.37112L75.374 11.0649L76.9574 12.9796ZM80.2713 9.68411C79.811 9.68411 79.0562 9.92345 79.0562 10.6415H81.5048C81.4864 9.92345 80.7132 9.68411 80.2713 9.68411ZM82.4806 11.7277H79.0562C79.0562 12.7403 80.032 12.906 80.4554 12.906C80.7684 12.906 81.2103 12.8508 81.5601 12.6851C81.6705 12.6114 81.8362 12.5562 82.0019 12.5562C82.3701 12.5562 82.6831 12.8692 82.6831 13.2558C82.6831 13.5136 82.5174 13.7345 82.3149 13.8634C81.7994 14.25 81.1182 14.3421 80.4738 14.3421C78.7616 14.3421 77.344 13.4215 77.344 11.2674C77.344 9.57364 78.2093 8.10077 80.2345 8.10077C81.873 8.10077 83.1066 9.1686 83.1434 11.0649C83.1434 11.4147 82.8488 11.7277 82.4806 11.7277ZM87.1938 14.3236H86.7335C85.4447 14.3236 84.6899 13.7529 84.6899 11.7461V9.6657H84.248C83.843 9.6657 83.4932 9.29748 83.4932 8.89244C83.4932 8.45058 83.8614 8.10077 84.248 8.10077H84.6899V6.49903C84.6899 6.02035 85.0581 5.63372 85.5368 5.63372C85.9971 5.63372 86.3837 6.02035 86.3837 6.49903V8.10077H87.0833C87.4884 8.10077 87.8382 8.45058 87.8382 8.89244C87.8382 9.29748 87.4699 9.6657 87.0833 9.6657H86.3837V11.4147C86.3837 12.5746 86.4389 12.814 86.9544 12.814H87.1938C87.5988 12.814 87.9486 13.1453 87.9486 13.5688C87.9486 13.9738 87.5988 14.3236 87.1938 14.3236ZM95.3866 6.25969C95.6075 6.38857 95.8101 6.70155 95.8101 6.97771C95.8101 7.41957 95.4418 7.78779 95.0184 7.78779C94.9079 7.78779 94.8159 7.75097 94.7238 7.73256C94.2267 7.36434 93.6008 7.125 92.938 7.125C91.373 7.125 90.3052 8.39535 90.3052 9.97868C90.3052 11.562 91.3915 12.814 92.938 12.814C93.7112 12.814 94.4108 12.501 94.9263 12.0039C95.0552 11.9118 95.2209 11.8566 95.3866 11.8566C95.8101 11.8566 96.1415 12.188 96.1415 12.6114C96.1415 12.8876 95.9758 13.1269 95.7732 13.2558C95.0184 13.9002 94.0058 14.3236 92.9564 14.3236C90.563 14.3236 88.6114 12.3537 88.6114 9.92345C88.6114 7.49322 90.563 5.52326 92.9564 5.52326C93.8401 5.50484 94.7054 5.78101 95.3866 6.25969ZM99.6763 12.814C100.431 12.814 101.076 12.1327 101.076 11.2122C101.076 10.2917 100.413 9.68411 99.6763 9.68411C98.9215 9.68411 98.3323 10.3101 98.3323 11.2122C98.3323 12.0959 98.9399 12.814 99.6763 12.814ZM101.481 13.5872L101.444 13.3847C101.112 14.0291 100.063 14.3236 99.4002 14.3236C97.8168 14.3236 96.6385 12.8876 96.6385 11.1754C96.6385 9.48159 97.8353 8.08236 99.4922 8.08236C99.7684 8.08236 100.726 8.15601 101.462 9.02132L101.499 8.8188C101.499 8.45058 101.775 8.15601 102.143 8.15601C102.512 8.15601 102.806 8.46899 102.806 8.8188V13.5688C102.806 13.937 102.512 14.2316 102.143 14.2316C101.757 14.25 101.481 13.937 101.481 13.5872ZM107.427 12.814C108.182 12.814 108.771 12.0959 108.771 11.2122C108.771 10.2917 108.164 9.68411 107.427 9.68411C106.672 9.68411 106.028 10.2917 106.028 11.2122C106.028 12.1327 106.672 12.814 107.427 12.814ZM106.028 13.8266V15.9806C106.028 16.4593 105.641 16.8459 105.181 16.8459C104.721 16.8459 104.334 16.4593 104.334 15.9806V8.83721C104.334 8.46899 104.629 8.17442 104.997 8.17442C105.365 8.17442 105.641 8.4874 105.641 8.91085C106.267 8.26647 107.041 8.10077 107.63 8.10077C109.268 8.10077 110.484 9.48159 110.484 11.1938C110.484 12.8876 109.324 14.3421 107.722 14.3421C107.225 14.3236 106.488 14.1764 106.028 13.8266Z"
          fill="#8C8C95"/>
</svg>
