<svg width="144" height="176" viewBox="0 0 144 176" fill="none" xmlns="http://www.w3.org/2000/svg">
    <path d="M4.59963 133.89C3.85264 91.5872 1.38342 64.0076 0.242188 55.5056C6.8821 52.4988 18.6679 47.4805 12.692 51.462C5.22212 56.4387 9.57956 76.3458 10.2021 86.2993C10.7 94.2622 12.0695 123.832 12.692 137.622L20.1619 174.326C15.2857 178.473 5.34662 176.192 4.59963 133.89Z" fill="#BAF77E"/>
    <path d="M101.958 108.203C101.405 53.7431 99.5758 18.2374 98.7305 7.29202C103.649 3.4211 112.379 -3.03933 107.953 2.0863C102.419 8.49334 105.647 34.1215 106.108 46.9356C106.477 57.1869 107.491 95.2554 107.953 113.008L113.486 160.26C109.874 165.599 102.512 162.663 101.958 108.203Z" fill="#BAF77E"/>
    <path d="M136.316 52.3897C136.302 34.6615 136.621 16.931 136.783 10.2818C138.767 9.67684 141.768 8.75456 143.183 8.29978C143.272 8.22931 143.362 8.18102 143.455 8.15569C144.311 7.92232 144.033 8.02688 143.183 8.29978C140.564 10.3935 140.013 32.0632 140.983 52.649C141.985 73.9277 140.741 96.3299 141.069 101.654C141.397 106.978 136.488 105.457 136.281 97.9548C136.074 90.4528 136.333 74.5499 136.316 52.3897Z" fill="#BAF77E"/>
</svg>
