<svg width="27" height="25" viewBox="0 0 27 25" fill="none" xmlns="http://www.w3.org/2000/svg">
    <path d="M26.0078 13.0731C26.0078 12.3533 25.9332 11.6505 25.8247 10.9614C25.8078 10.859 25.7976 10.7567 25.7772 10.6543C25.6552 10.0027 25.4823 9.37159 25.2686 8.76092C25.2279 8.64151 25.1873 8.52893 25.1432 8.41294C24.9126 7.80909 24.6447 7.2223 24.3328 6.66621C24.2853 6.58092 24.2311 6.49904 24.1802 6.41376C23.8378 5.8372 23.4648 5.2777 23.0409 4.76255C23.0274 4.74891 23.0138 4.73526 23.0036 4.72162C20.6166 1.83543 17.0258 0 13.0078 0C8.98981 0 5.39905 1.83543 3.01538 4.7182C3.00181 4.73185 2.98825 4.7455 2.97808 4.75914C2.55424 5.27429 2.18126 5.83379 1.8388 6.41034C1.78794 6.49563 1.73369 6.57751 1.68622 6.6628C1.37427 7.2223 1.1064 7.80568 0.875835 8.40952C0.831756 8.52552 0.791068 8.6381 0.750379 8.75751C0.536764 9.37159 0.363838 10.0027 0.241772 10.6509C0.221428 10.7533 0.211255 10.8556 0.194302 10.958C0.0824082 11.6505 0.0078125 12.3533 0.0078125 13.0731C0.0078125 13.0766 0.0078125 13.0766 0.0078125 13.08V13.0834C0.0078125 13.868 0.0891896 14.6322 0.221428 15.3794C1.29628 15.7342 2.38809 16.0412 3.49686 16.3107C3.41209 18.3372 3.04589 19.4016 1.96425 19.9543C2.58136 20.9539 3.32054 21.8579 4.175 22.6562C6.14161 21.3394 6.72143 19.1764 6.87401 16.9726C7.33176 17.0442 7.79967 17.092 8.2642 17.1466V25H12.1161V17.4229C12.4144 17.4297 12.706 17.4604 13.0078 17.4604C13.3096 17.4604 13.6012 17.4297 13.8996 17.4229V25H17.7514V17.1431C18.216 17.0886 18.6805 17.0408 19.1416 16.9692C19.2942 19.173 19.874 21.336 21.8406 22.6528C22.6917 21.8579 23.4343 20.9505 24.0514 19.9509C22.9697 19.3982 22.6035 18.3304 22.5188 16.3073C23.6275 16.0378 24.7227 15.7308 25.7942 15.376C25.9264 14.6288 26.0078 13.8646 26.0078 13.08V13.0766C26.0078 13.0766 26.0078 13.0766 26.0078 13.0731ZM20.2266 13.3188C19.4298 13.4757 18.633 13.6088 17.8328 13.7145C16.2324 13.926 14.6218 14.0352 13.0112 14.0352C11.4006 14.0352 9.79002 13.9294 8.18961 13.7145C7.3894 13.6088 6.58919 13.4757 5.79576 13.3188C5.00234 13.1584 4.20891 12.9742 3.41887 12.7627C3.50025 10.1733 4.60223 7.83638 6.33149 6.14765C8.06076 4.45892 10.4173 3.4184 13.0112 3.4184C15.6051 3.4184 17.9616 4.45892 19.6909 6.14765C21.4202 7.83638 22.5222 10.1699 22.6035 12.7627C21.8135 12.9742 21.0201 13.1618 20.2266 13.3188Z"
          fill="white"/>
</svg>
