<svg width="142" height="140" viewBox="0 0 142 140" fill="none" xmlns="http://www.w3.org/2000/svg">
    <g clip-path="url(#clip0_319_4551)">
        <path d="M119.054 94.9678C119 94.9394 118.924 94.9272 118.871 94.9109C118.878 95.4812 118.887 96.0636 118.893 96.6339L120.335 96.4096C120.024 95.7277 119.598 95.2512 119.054 94.9678Z"
              stroke="white" stroke-width="0.616006"/>
        <path d="M49.2183 20.118C35.4758 25.7665 24.8562 36.8149 19.547 50.2456L32.1869 48.1694C34.9201 35.845 40.949 25.737 49.2183 20.118Z"
              fill="white" stroke="white" stroke-width="0.616006"/>
        <path d="M69.3696 43.3052C69.8864 44.6364 70.1626 46.3177 70.4606 48.132C71.158 52.3776 71.7221 55.8873 68.2048 57.0861L70.2095 69.2906L86.9377 66.5429C85.3855 57.3199 83.1646 48.7905 80.546 41.4694L69.3696 43.3052Z"
              fill="white" stroke="white" stroke-width="0.616006"/>
        <path d="M19.0329 51.5728C16.0271 59.8178 14.9821 68.8836 16.3892 78.1304L31.4966 75.6489C30.0572 66.4323 30.2797 57.5016 31.8905 49.4608L19.0329 51.5728Z"
              fill="white" stroke="white" stroke-width="0.616006"/>
        <path d="M33.583 76.5495C35.7624 78.7007 40.4154 84.7188 36.9833 94.3009C34.2327 101.982 30.6177 104.477 28.9332 105.263C33.4069 110.416 38.8297 114.693 44.8618 117.838C40.8017 109.909 39.9474 102.969 47.4533 95.5003C52.4605 90.5165 54.5928 85.272 53.7852 79.9017C53.2971 76.6279 51.8314 74.3595 51.3011 73.6267L51.2648 73.6327L33.581 76.5374L33.583 76.5495Z"
              fill="white" stroke="white" stroke-width="0.616006"/>
        <path d="M106.637 63.3079L122.834 60.6476C121.209 51.4365 117.319 43.1813 111.833 36.331L97.875 38.6238C101.985 45.7248 105.053 54.115 106.637 63.3079Z"
              fill="white" stroke="white" stroke-width="0.616006"/>
        <path d="M81.7812 41.2661C84.3838 48.5651 86.5906 57.0843 88.1367 66.3456L105.421 63.5065C103.833 54.2894 100.729 45.9051 96.5863 38.8343L81.7812 41.2661Z"
              fill="white" stroke="white" stroke-width="0.616006"/>
        <path d="M60.7922 49.7201C60.4942 47.9058 60.2181 46.2245 60.2819 44.7979L53.6655 45.8847C54.1702 47.2179 54.4464 48.8992 54.7444 50.7135C55.5133 55.3945 56.1352 59.1804 51.2969 59.9751C51.1155 60.005 50.9563 60.0187 50.797 60.0324C51.1223 63.9789 51.6064 68.0607 52.2798 72.2357L69.008 69.4879L67.0212 57.3923C62.183 58.187 61.5611 54.4011 60.7922 49.7201Z"
              fill="white" stroke="white" stroke-width="0.616006"/>
        <path d="M45.0605 52.3031C44.7625 50.4888 44.4863 48.8075 44.5501 47.3809L33.1803 49.2485C31.5151 57.2609 31.2462 66.2116 32.7017 75.4505L51.0628 72.4346C50.3775 68.187 49.8835 64.0447 49.5503 60.0499C46.2905 59.7158 45.7241 56.3431 45.0605 52.3031Z"
              fill="white" stroke="white" stroke-width="0.616006"/>
        <path d="M35.8165 93.8956C39.5244 83.5726 33.2325 77.7864 32.0399 76.8022L31.677 76.8618L16.5938 79.3394C18.2662 88.8407 22.3431 97.326 28.1063 104.28C29.2379 103.833 32.9807 101.815 35.8165 93.8956Z"
              fill="white" stroke="white" stroke-width="0.616006"/>
        <path d="M117.273 94.7025C116.644 94.8058 116.093 95.0826 115.61 95.547C115.128 96.0113 114.838 96.593 114.754 97.2901L118.909 96.6449C118.902 96.0746 118.895 95.5043 118.887 94.9219C118.377 94.695 117.841 94.6091 117.273 94.7025Z"
              fill="white" stroke="white" stroke-width="0.616006"/>
        <path d="M116.411 101.687C117.008 102.073 117.665 102.214 118.379 102.097C118.5 102.077 118.605 102.035 118.711 102.005C118.78 101.137 118.82 100.248 118.845 99.3371L115.055 99.9348C115.369 100.715 115.825 101.299 116.411 101.687Z"
              fill="white" stroke="white" stroke-width="0.616006"/>
        <path d="M81.0073 100.373C80.3783 100.476 79.8275 100.753 79.3448 101.217C78.8621 101.682 78.5726 102.263 78.4883 102.96L84.0723 102.093C83.7636 101.423 83.3375 100.947 82.7941 100.663C82.2467 100.356 81.6605 100.266 81.0073 100.373Z"
              fill="white" stroke="white" stroke-width="0.616006"/>
        <path d="M68.8113 42.1548L80.1087 40.2991C74.7119 25.745 67.7433 16.3683 61.5781 16.7226L65.4623 40.3695C67.0905 40.3754 68.1187 41.0387 68.8113 42.1548Z"
              fill="white" stroke="white" stroke-width="0.616006"/>
        <path d="M71.6983 82.1017C71.0693 82.205 70.5205 82.4939 70.0378 82.9583C69.5551 83.4226 69.2777 84.0023 69.1934 84.6994L74.7695 83.7835C74.4607 83.1137 74.0226 82.6391 73.4791 82.3557C72.9498 82.0824 72.3515 81.9944 71.6983 82.1017Z"
              fill="white" stroke="white" stroke-width="0.616006"/>
        <path d="M53.0871 44.7373L60.4292 43.5313C60.8157 41.9523 61.8642 40.8484 64.2349 40.459L60.3686 16.921C54.7004 18.4855 51.1621 28.6316 50.4413 42.998C51.662 43.1702 52.4969 43.7908 53.0871 44.7373Z"
              fill="white" stroke="white" stroke-width="0.616006"/>
        <path d="M81.3547 40.0938L95.9057 37.7037C88.225 25.2018 77.2492 17.1416 65.875 16.5627C71.3575 19.4633 76.9032 28.0428 81.3547 40.0938Z"
              fill="white" stroke="white" stroke-width="0.616006"/>
        <path d="M48.5101 43.0423C48.752 43.0025 48.9718 42.9789 49.2055 42.9653C49.8221 30.9886 52.3987 21.87 56.5896 17.8153C45.2759 21.537 36.9041 33.036 33.4816 47.9704L44.7305 46.1227C45.0909 44.5355 46.1394 43.4317 48.5101 43.0423Z"
              fill="white" stroke="white" stroke-width="0.616006"/>
        <path d="M97.2 37.4903L110.929 35.2353C101.128 23.6654 86.6516 16.4535 70.9766 16.0842C81.0206 18.4716 90.4151 26.2822 97.2 37.4903Z"
              fill="white" stroke="white" stroke-width="0.616006"/>
        <path d="M59.8733 10.1204C26.8039 15.5523 4.40274 46.759 9.83463 79.8284C15.2665 112.898 46.4731 135.299 79.5426 129.867C87.066 128.631 86.8595 121.324 93.0726 117.707C99.5582 113.934 106.162 121.768 115.657 111.513C116.986 110.077 117.791 108.02 118.262 105.595C116.533 105.73 114.964 105.329 113.546 104.332C112.463 103.566 111.688 102.55 111.189 101.328C111.265 101.564 111.329 101.802 111.359 102.058C111.585 103.511 111.201 104.73 110.193 105.703C109.186 106.676 107.759 107.295 105.919 107.585C104.211 107.853 102.716 107.751 101.458 107.274C100.188 106.8 99.3473 105.919 98.9271 104.646L102.999 103.12C103.343 104.157 104.229 104.558 105.646 104.338C106.191 104.248 106.598 104.082 106.879 103.825C107.16 103.567 107.275 103.288 107.237 102.983C107.154 102.475 106.653 102.222 105.73 102.2L102.893 102.094C100.211 102.026 98.702 100.932 98.3442 98.8293L97.7757 98.9227C94.6632 99.4091 93.3669 101.349 93.8971 104.727L94.5561 108.967L90.2321 109.64L88.1177 96.0869L92.4418 95.4139L92.8428 98.0063C93.6657 95.983 95.075 94.8075 97.0728 94.4917C97.4356 94.4321 97.7581 94.4289 98.0583 94.4417L98.3985 97.1932C98.5513 96.46 98.8854 95.7716 99.447 95.1825C100.401 94.1811 101.736 93.5394 103.468 93.2674C105.127 93.0073 106.553 93.1457 107.747 93.6825C108.941 94.2193 109.773 95.0515 110.234 96.1932L106.414 97.5908C106.268 97.1552 105.974 96.8059 105.526 96.569C105.077 96.3322 104.531 96.2604 103.9 96.3516C103.355 96.441 102.984 96.6014 102.776 96.8467C102.568 97.0921 102.487 97.3539 102.522 97.6462C102.602 98.13 102.992 98.3888 103.695 98.4348L106.988 98.5896C108.267 98.6652 109.28 99.0081 110.026 99.6185C110.471 99.9802 110.792 100.424 111.025 100.933C110.877 100.485 110.749 100.009 110.677 99.4991C110.348 97.4166 110.779 95.5818 111.952 94.0228C113.124 92.4638 114.72 91.5185 116.742 91.1987C117.456 91.0815 118.131 91.1073 118.788 91.1733C118.665 86.8707 118.57 82.8119 119.183 79.8914C122.648 63.1737 131.06 69.0091 129.607 60.1672C124.149 27.0897 92.9427 4.68855 59.8733 10.1204ZM88.7439 104.058L78.8135 105.615C79.116 106.398 79.572 106.981 80.1696 107.367C80.7672 107.754 81.4239 107.894 82.1375 107.777C83.4942 107.566 84.3643 106.889 84.7881 105.764L88.7435 105.947C88.3933 107.445 87.6812 108.63 86.6353 109.523C85.5893 110.415 84.2661 110.98 82.6795 111.228C80.6818 111.544 78.8872 111.131 77.2878 110.014C75.6884 108.898 74.7269 107.28 74.4054 105.171C74.0758 103.089 74.5073 101.254 75.6777 99.683C76.8482 98.1119 78.4464 97.1786 80.4684 96.8589C82.4298 96.5491 84.1861 96.9563 85.7211 98.0581C87.2561 99.16 88.2074 100.793 88.5872 102.954L88.7439 104.058ZM63.5137 99.8923L68.0838 107.75L70.017 98.8737L74.583 98.161L71.0831 112.624L66.6864 113.309L58.9477 100.605L63.5137 99.8923ZM58.9951 99.3053L59.09 95.7992C59.5856 95.8668 59.9483 95.8818 60.2023 95.8401C60.5409 95.7844 60.8033 95.642 60.9751 95.4026C61.1489 95.1753 61.2141 94.8913 61.1604 94.5647L58.9352 81.0176L63.2171 80.3143L65.5237 94.3573C65.7383 95.6636 65.5241 96.7795 64.869 97.707C64.212 98.6223 63.2373 99.1924 61.9189 99.4089C60.9633 99.5659 59.9901 99.5394 58.9951 99.3053ZM70.9085 89.1003C71.5061 89.4866 72.1607 89.6151 72.8865 89.4959C74.2412 89.2733 75.1113 88.5963 75.521 87.4607L79.4845 87.6171C79.1343 89.1156 78.4484 90.3089 77.4044 91.2133C76.3605 92.1177 75.0513 92.693 73.4668 92.9532C71.471 93.281 69.6683 92.8939 68.0689 91.7778C66.4695 90.6617 65.4858 89.0594 65.1401 86.9547C64.7984 84.8743 65.2057 83.0435 66.3742 81.4603C67.5426 79.8771 69.1268 78.9337 71.1346 78.6038C73.0941 78.282 74.8464 78.6649 76.3935 79.7648C77.9406 80.8647 78.902 82.4831 79.292 84.6302L79.4728 85.7309L69.5544 87.36C69.8568 88.1426 70.3129 88.7261 70.9085 89.1003ZM81.0195 91.2903L77.8307 71.8768L82.1488 71.1675L85.3376 90.581L81.0195 91.2903ZM91.1556 89.6254L86.8375 90.3346L83.6486 70.9212L87.9668 70.2119L91.1556 89.6254ZM100.134 92.8586L95.4647 93.6255L96.8134 88.224L89.0493 76.0463L93.682 75.2854L98.1847 82.6573L100.31 74.1966L104.943 73.4357L100.134 92.8586ZM124.238 61.658L106.844 64.515L88.3499 67.5528L52.6194 73.4218C54.3982 76.2351 58.9805 85.7554 48.3156 96.3764C40.8643 103.799 42.1706 110.466 46.7396 118.771C56.2889 123.289 67.2493 125.054 78.4377 123.216L78.6364 124.426C48.8328 129.321 20.5992 109.215 15.3891 79.5371L15.377 79.5391L15.2777 78.9343C10.4438 49.5057 29.9756 21.6274 59.0214 15.8999C59.4166 15.8102 59.8239 15.7184 60.2231 15.6529C60.2956 15.641 60.3702 15.6411 60.4428 15.6292C60.5516 15.6113 60.6585 15.5814 60.7674 15.5635C90.7766 10.6342 119.209 31.044 124.138 61.0532L124.238 61.658Z"
              fill="white" stroke="white" stroke-width="0.616006"/>
        <path d="M52.5077 56.0499C53.5116 55.885 54.1889 54.9415 54.024 53.9376C53.8591 52.9336 52.9156 52.2563 51.9116 52.4213C51.1133 52.5524 50.5234 53.1958 50.3987 53.9492C50.4142 54.1951 50.4298 54.441 50.4332 54.6889C50.6709 55.6063 51.5642 56.2049 52.5077 56.0499Z"
              fill="white" stroke="white" stroke-width="0.616006"/>
        <path d="M50.436 54.6879C50.4204 54.442 50.4049 54.1961 50.4015 53.9482C50.3708 54.1396 50.3663 54.3391 50.3981 54.5326C50.406 54.581 50.428 54.6395 50.436 54.6879Z"
              fill="white" stroke="white" stroke-width="0.616006"/>
        <path d="M68.2321 53.4666C69.236 53.3017 69.9133 52.3582 69.7484 51.3542C69.5835 50.3503 68.64 49.673 67.636 49.8379C67.4183 49.8737 67.2327 49.9538 67.0491 50.0461L67.6094 53.4571C67.8129 53.4858 68.0143 53.5024 68.2321 53.4666Z"
              fill="white" stroke="white" stroke-width="0.616006"/>
        <path d="M66.1239 51.9494C66.253 52.7356 66.8703 53.3174 67.6136 53.4562L67.0533 50.0452C66.3935 50.4145 65.9947 51.1632 66.1239 51.9494Z"
              fill="white" stroke="white" stroke-width="0.616006"/>
        <path d="M121.902 94.5767C121.993 94.45 122.118 94.3797 122.275 94.3539C122.432 94.3281 122.573 94.3546 122.7 94.4456C122.827 94.5366 122.895 94.6496 122.921 94.8068C122.947 94.9641 122.92 95.1051 122.827 95.2197C122.736 95.3465 122.611 95.4167 122.454 95.4425C122.297 95.4684 122.156 95.4418 122.029 95.3509C121.902 95.2599 121.832 95.1348 121.808 94.9896C121.784 94.8445 121.811 94.7035 121.902 94.5767Z"
              fill="white" stroke="white" stroke-width="0.616006"/>
        <path d="M123.648 91.3825C124.028 90.8977 124.536 90.5906 125.177 90.4853C125.819 90.38 126.397 90.4962 126.902 90.848C127.405 91.1877 127.712 91.6963 127.819 92.3494C127.926 93.0026 127.796 93.5706 127.418 94.0674C127.04 94.5643 126.542 94.8573 125.9 94.9626C125.259 95.0679 124.681 94.9517 124.164 94.6019C123.647 94.252 123.342 93.7556 123.235 93.1024C123.138 92.4352 123.28 91.8652 123.648 91.3825ZM125.783 94.1744C126.158 94.1128 126.463 93.9261 126.708 93.6003C126.942 93.2885 127.03 92.9138 126.958 92.4784C126.887 92.043 126.684 91.716 126.362 91.4956C126.038 91.2631 125.69 91.1837 125.303 91.2473C124.916 91.3109 124.599 91.4996 124.366 91.8234C124.132 92.1352 124.056 92.5079 124.128 92.9433C124.199 93.3788 124.39 93.7077 124.712 93.9281C125.036 94.1606 125.396 94.238 125.783 94.1744Z"
              fill="white" stroke="white" stroke-width="0.616006"/>
        <path d="M130.981 89.5813C131.102 89.5615 131.213 89.5557 131.289 89.568L131.37 90.4367C131.322 90.4446 131.235 90.4464 131.114 90.4663C130.582 90.5537 130.211 90.7886 129.988 91.173C129.765 91.5574 129.71 92.051 129.809 92.6557L130.055 94.1556L129.16 94.3026L128.459 90.0329L129.354 89.8858L129.503 90.793C129.799 90.0985 130.292 89.6946 130.981 89.5813Z"
              fill="white" stroke="white" stroke-width="0.616006"/>
        <path d="M136.074 88.7955L136.712 92.6782C136.815 93.3072 136.703 93.8349 136.361 94.2512C136.02 94.6676 135.517 94.9364 134.84 95.0477C133.824 95.2146 133.067 94.9911 132.591 94.3613L133.227 93.6978C133.44 93.9361 133.653 94.0998 133.879 94.187C134.104 94.2742 134.38 94.2909 134.707 94.2373C135.118 94.1697 135.425 93.9951 135.629 93.7256C135.831 93.4439 135.899 93.0975 135.831 92.6862L135.785 92.408C135.504 92.8144 135.05 93.0753 134.397 93.1826C133.841 93.274 133.323 93.1479 132.834 92.8183C132.345 92.4886 132.058 92.0265 131.963 91.4459C131.867 90.8653 131.994 90.3477 132.351 89.879C132.709 89.4103 133.161 89.1373 133.718 89.0459C134.359 88.9406 134.884 89.0406 135.281 89.3357L135.211 88.9124L136.07 88.7713L136.074 88.7955ZM134.405 92.3987C134.768 92.3391 135.062 92.1665 135.277 91.8829C135.503 91.5973 135.572 91.2629 135.511 90.888C135.447 90.5009 135.262 90.2083 134.971 90.0202C134.679 89.8321 134.343 89.7507 133.98 89.8103C133.593 89.8739 133.286 90.0485 133.058 90.322C132.831 90.6076 132.762 90.942 132.826 91.329C132.889 91.7161 133.074 92.0087 133.368 92.2089C133.671 92.395 134.018 92.4623 134.405 92.3987Z"
              fill="white" stroke="white" stroke-width="0.616006"/>
    </g>
    <defs>
        <clipPath id="clip0_319_4551">
            <rect width="123.116" height="121.351" fill="white" transform="translate(0 19.9551) rotate(-9.32796)"/>
        </clipPath>
    </defs>
</svg>
